<svg xmlns="http://www.w3.org/2000/svg" width="29.946" height="22.459" viewBox="0 0 29.946 22.459">
  <path id="envelope" d="M29.378,71.416a.352.352,0,0,1,.567.275V83.652a2.808,2.808,0,0,1-2.807,2.807H2.807A2.808,2.808,0,0,1,0,83.652V71.7a.35.35,0,0,1,.567-.275c1.31,1.018,3.047,2.31,9.013,6.644,1.234.9,3.316,2.8,5.393,2.784,2.088.018,4.211-1.918,5.4-2.784C26.337,73.732,28.068,72.434,29.378,71.416ZM14.973,78.973c1.357.023,3.31-1.708,4.293-2.421,7.761-5.632,8.352-6.124,10.142-7.527a1.4,1.4,0,0,0,.538-1.105V66.807A2.808,2.808,0,0,0,27.138,64H2.807A2.808,2.808,0,0,0,0,66.807v1.111a1.408,1.408,0,0,0,.538,1.105c1.79,1.4,2.38,1.895,10.142,7.527C11.662,77.265,13.616,79,14.973,78.973Z" transform="translate(0 -64)" fill="#2d2e32"/>
</svg>
